# xmcd CD database file
#
# Track frame offsets:
#	300
#	20081
#	37696
#	56267
#	71133
#	92979
#	119673
#	138645
#	154305
#	182376
#	202312
#	221237
#	238482
#	264775
#	280759
#	300396
#	316414
#	332437
#
# Disc length: 4676 seconds
#
# Revision: 1
# Processed by: cddbd v1.5.2PL0 Copyright (c) Steve Scherf et al.
# Submitted via: CDex 1.51
#
DISCID=11124012
DTITLE=Various Artist - SF-330
DYEAR=1900
DGENRE=Blues
TTITLE0=Avicll FtAloe Blacc - Wake Me Up
TTITLE1=Sebastian Ingrosso Tommy Trash T and John Martin - Reload
TTITLE2=Robin Thicke Ft Kendrick Lamar - Give It 2 U
TTITLE3=Will.i.am - Bang Bang
TTITLE4=Artic Monkeys - Do I Wanna Know
TTITLE5=Jay Z Ft Justin Timberlake - Holy Grail
TTITLE6=Mutya Keisha Siobhan - Flatline
TTITLE7=Script The - Millionaires
TTITLE8=Duke Dumont Ft MNEK - Hold On
TTITLE9=Agnetha Falstkog - Dance Your Pain Away
TTITLE10=Imagine Dragons - It's Time
TTITLE11=Selena Gomez - Slow Down
TTITLE12=Rudimental Ft Foxes - Right Here
TTITLE13=Mumford and Sons - Babel
TTITLE14=Status Quo - Looking Out For Caroline
TTITLE15=Naughty Boy Ft Emeli Sande - Lifted
TTITLE16=Wretch 32 Ft Jacob Banks - Doing Ok
TTITLE17=Rod Stewart and Dizzee Rascal - She Makes Me Happy
EXTD=
EXTT0=
EXTT1=
EXTT2=
EXTT3=
EXTT4=
EXTT5=
EXTT6=
EXTT7=
EXTT8=
EXTT9=
EXTT10=
EXTT11=
EXTT12=
EXTT13=
EXTT14=
EXTT15=
EXTT16=
EXTT17=
PLAYORDER=
